<mxfile host="app.diagrams.net" modified="2021-04-24T07:46:26.778Z" agent="5.0 (Windows NT 10.0; Win64; x64) AppleWebKit/537.36 (KHTML, like Gecko) Chrome/90.0.4430.85 Safari/537.36" etag="cFsstWwkM5rkD6dVBYER" version="14.6.6" type="github">
  <diagram name="Page-1" id="42789a77-a242-8287-6e28-9cd8cfd52e62">
    <mxGraphModel dx="2254" dy="836" grid="1" gridSize="10" guides="1" tooltips="1" connect="1" arrows="1" fold="1" page="1" pageScale="1" pageWidth="1100" pageHeight="850" background="#ffffff" math="0" shadow="0">
      <root>
        <mxCell id="0" />
        <mxCell id="1" parent="0" />
        <mxCell id="ccRq8ted7UfHj1GbX7tM-31" style="edgeStyle=none;rounded=0;orthogonalLoop=1;jettySize=auto;html=1;entryX=0;entryY=1;entryDx=0;entryDy=0;" parent="1" source="1ea317790d2ca983-1" target="ccRq8ted7UfHj1GbX7tM-26" edge="1">
          <mxGeometry relative="1" as="geometry" />
        </mxCell>
        <mxCell id="1ea317790d2ca983-1" value="&lt;span style=&quot;font-family: &amp;#34;helvetica&amp;#34;&quot;&gt;2.whole body segment&lt;/span&gt;" style="ellipse;whiteSpace=wrap;html=1;rounded=0;shadow=1;comic=0;labelBackgroundColor=none;strokeWidth=1;fontFamily=Verdana;fontSize=12;align=center;" parent="1" vertex="1">
          <mxGeometry x="180" y="355" width="100" height="60" as="geometry" />
        </mxCell>
        <mxCell id="ccRq8ted7UfHj1GbX7tM-33" style="edgeStyle=none;rounded=0;orthogonalLoop=1;jettySize=auto;html=1;entryX=0.005;entryY=0.66;entryDx=0;entryDy=0;entryPerimeter=0;" parent="1" source="1ea317790d2ca983-2" target="1ea317790d2ca983-3" edge="1">
          <mxGeometry relative="1" as="geometry" />
        </mxCell>
        <mxCell id="1ea317790d2ca983-2" value="&lt;span&gt;4.lung fracture&lt;/span&gt;" style="ellipse;whiteSpace=wrap;html=1;rounded=0;shadow=1;comic=0;labelBackgroundColor=none;strokeWidth=1;fontFamily=Verdana;fontSize=12;align=center;" parent="1" vertex="1">
          <mxGeometry x="410" y="355" width="75" height="50" as="geometry" />
        </mxCell>
        <mxCell id="ccRq8ted7UfHj1GbX7tM-34" style="edgeStyle=none;rounded=0;orthogonalLoop=1;jettySize=auto;html=1;" parent="1" source="1ea317790d2ca983-3" target="E7qCEXml-a51oX7vlCE2-11" edge="1">
          <mxGeometry relative="1" as="geometry" />
        </mxCell>
        <mxCell id="1ea317790d2ca983-3" value="&lt;span&gt;5.lung nodule&lt;/span&gt;" style="ellipse;whiteSpace=wrap;html=1;rounded=0;shadow=1;comic=0;labelBackgroundColor=none;strokeWidth=1;fontFamily=Verdana;fontSize=12;align=center;" parent="1" vertex="1">
          <mxGeometry x="585" y="303.75" width="75" height="50" as="geometry" />
        </mxCell>
        <mxCell id="ccRq8ted7UfHj1GbX7tM-32" style="edgeStyle=none;rounded=0;orthogonalLoop=1;jettySize=auto;html=1;entryX=0;entryY=0.5;entryDx=0;entryDy=0;" parent="1" source="1ea317790d2ca983-9" target="1ea317790d2ca983-3" edge="1">
          <mxGeometry relative="1" as="geometry" />
        </mxCell>
        <mxCell id="1ea317790d2ca983-9" value="3.lung phenumonia" style="ellipse;whiteSpace=wrap;html=1;rounded=0;shadow=1;comic=0;labelBackgroundColor=none;strokeWidth=1;fontFamily=Verdana;fontSize=12;align=center;" parent="1" vertex="1">
          <mxGeometry x="410" y="250" width="75" height="50" as="geometry" />
        </mxCell>
        <mxCell id="ccRq8ted7UfHj1GbX7tM-30" style="edgeStyle=none;rounded=0;orthogonalLoop=1;jettySize=auto;html=1;entryX=0;entryY=0;entryDx=0;entryDy=0;" parent="1" source="E7qCEXml-a51oX7vlCE2-1" target="ccRq8ted7UfHj1GbX7tM-26" edge="1">
          <mxGeometry relative="1" as="geometry" />
        </mxCell>
        <mxCell id="E7qCEXml-a51oX7vlCE2-1" value="&lt;span style=&quot;font-family: &amp;#34;verdana&amp;#34;&quot;&gt;1.body part locate&lt;/span&gt;" style="ellipse;whiteSpace=wrap;html=1;" parent="1" vertex="1">
          <mxGeometry x="185" y="250" width="95" height="60" as="geometry" />
        </mxCell>
        <mxCell id="ccRq8ted7UfHj1GbX7tM-2" style="rounded=0;orthogonalLoop=1;jettySize=auto;html=1;exitX=1;exitY=0;exitDx=0;exitDy=0;entryX=0;entryY=0.5;entryDx=0;entryDy=0;" parent="1" source="E7qCEXml-a51oX7vlCE2-6" target="E7qCEXml-a51oX7vlCE2-1" edge="1">
          <mxGeometry relative="1" as="geometry" />
        </mxCell>
        <mxCell id="E7qCEXml-a51oX7vlCE2-6" value="START" style="ellipse;whiteSpace=wrap;html=1;" parent="1" vertex="1">
          <mxGeometry y="310" width="102" height="60" as="geometry" />
        </mxCell>
        <mxCell id="ccRq8ted7UfHj1GbX7tM-35" style="edgeStyle=none;rounded=0;orthogonalLoop=1;jettySize=auto;html=1;entryX=0;entryY=0.5;entryDx=0;entryDy=0;" parent="1" source="E7qCEXml-a51oX7vlCE2-11" target="E7qCEXml-a51oX7vlCE2-23" edge="1">
          <mxGeometry relative="1" as="geometry" />
        </mxCell>
        <mxCell id="E7qCEXml-a51oX7vlCE2-11" value="6.lung result" style="ellipse;whiteSpace=wrap;html=1;" parent="1" vertex="1">
          <mxGeometry x="730" y="307.5" width="95" height="50" as="geometry" />
        </mxCell>
        <mxCell id="E7qCEXml-a51oX7vlCE2-13" value="" style="endArrow=classic;html=1;" parent="1" source="E7qCEXml-a51oX7vlCE2-6" target="1ea317790d2ca983-1" edge="1">
          <mxGeometry width="50" height="50" relative="1" as="geometry">
            <mxPoint x="520" y="580" as="sourcePoint" />
            <mxPoint x="570" y="530" as="targetPoint" />
          </mxGeometry>
        </mxCell>
        <mxCell id="ccRq8ted7UfHj1GbX7tM-36" style="edgeStyle=none;rounded=0;orthogonalLoop=1;jettySize=auto;html=1;" parent="1" source="E7qCEXml-a51oX7vlCE2-23" target="E7qCEXml-a51oX7vlCE2-24" edge="1">
          <mxGeometry relative="1" as="geometry" />
        </mxCell>
        <mxCell id="E7qCEXml-a51oX7vlCE2-23" value="7.lung registration" style="ellipse;whiteSpace=wrap;html=1;" parent="1" vertex="1">
          <mxGeometry x="895" y="307.5" width="100" height="50" as="geometry" />
        </mxCell>
        <mxCell id="ccRq8ted7UfHj1GbX7tM-37" style="edgeStyle=none;rounded=0;orthogonalLoop=1;jettySize=auto;html=1;entryX=1;entryY=0.5;entryDx=0;entryDy=0;" parent="1" source="E7qCEXml-a51oX7vlCE2-24" target="E7qCEXml-a51oX7vlCE2-45" edge="1">
          <mxGeometry relative="1" as="geometry" />
        </mxCell>
        <mxCell id="E7qCEXml-a51oX7vlCE2-24" value="8.cardiac coronary" style="ellipse;whiteSpace=wrap;html=1;" parent="1" vertex="1">
          <mxGeometry x="885" y="456.25" width="110" height="62.5" as="geometry" />
        </mxCell>
        <mxCell id="ccRq8ted7UfHj1GbX7tM-38" style="edgeStyle=none;rounded=0;orthogonalLoop=1;jettySize=auto;html=1;entryX=1;entryY=0.5;entryDx=0;entryDy=0;" parent="1" source="E7qCEXml-a51oX7vlCE2-45" target="E7qCEXml-a51oX7vlCE2-47" edge="1">
          <mxGeometry relative="1" as="geometry" />
        </mxCell>
        <mxCell id="E7qCEXml-a51oX7vlCE2-45" value="9.liver phase detect" style="ellipse;whiteSpace=wrap;html=1;" parent="1" vertex="1">
          <mxGeometry x="730" y="463.75" width="100" height="55" as="geometry" />
        </mxCell>
        <mxCell id="ccRq8ted7UfHj1GbX7tM-39" style="edgeStyle=none;rounded=0;orthogonalLoop=1;jettySize=auto;html=1;entryX=1;entryY=0.5;entryDx=0;entryDy=0;" parent="1" source="E7qCEXml-a51oX7vlCE2-47" target="E7qCEXml-a51oX7vlCE2-55" edge="1">
          <mxGeometry relative="1" as="geometry" />
        </mxCell>
        <mxCell id="E7qCEXml-a51oX7vlCE2-47" value="10.liver organ segment" style="ellipse;whiteSpace=wrap;html=1;" parent="1" vertex="1">
          <mxGeometry x="585" y="463.75" width="100" height="60" as="geometry" />
        </mxCell>
        <mxCell id="ccRq8ted7UfHj1GbX7tM-40" style="edgeStyle=none;rounded=0;orthogonalLoop=1;jettySize=auto;html=1;entryX=1;entryY=0.5;entryDx=0;entryDy=0;" parent="1" source="E7qCEXml-a51oX7vlCE2-55" target="E7qCEXml-a51oX7vlCE2-61" edge="1">
          <mxGeometry relative="1" as="geometry" />
        </mxCell>
        <mxCell id="E7qCEXml-a51oX7vlCE2-55" value="11.liver registration" style="ellipse;whiteSpace=wrap;html=1;" parent="1" vertex="1">
          <mxGeometry x="425" y="463.75" width="100" height="60" as="geometry" />
        </mxCell>
        <mxCell id="ccRq8ted7UfHj1GbX7tM-41" style="edgeStyle=none;rounded=0;orthogonalLoop=1;jettySize=auto;html=1;" parent="1" source="E7qCEXml-a51oX7vlCE2-61" target="E7qCEXml-a51oX7vlCE2-69" edge="1">
          <mxGeometry relative="1" as="geometry" />
        </mxCell>
        <mxCell id="E7qCEXml-a51oX7vlCE2-61" value="12.liver lesion analysis" style="ellipse;whiteSpace=wrap;html=1;" parent="1" vertex="1">
          <mxGeometry x="260" y="463.75" width="110" height="60" as="geometry" />
        </mxCell>
        <mxCell id="ccRq8ted7UfHj1GbX7tM-42" style="edgeStyle=none;rounded=0;orthogonalLoop=1;jettySize=auto;html=1;" parent="1" source="E7qCEXml-a51oX7vlCE2-69" target="E7qCEXml-a51oX7vlCE2-70" edge="1">
          <mxGeometry relative="1" as="geometry" />
        </mxCell>
        <mxCell id="E7qCEXml-a51oX7vlCE2-69" value="13.liver global analysis" style="ellipse;whiteSpace=wrap;html=1;" parent="1" vertex="1">
          <mxGeometry x="92" y="463.75" width="100" height="60" as="geometry" />
        </mxCell>
        <mxCell id="ccRq8ted7UfHj1GbX7tM-44" style="edgeStyle=none;rounded=0;orthogonalLoop=1;jettySize=auto;html=1;" parent="1" source="E7qCEXml-a51oX7vlCE2-71" target="E7qCEXml-a51oX7vlCE2-73" edge="1">
          <mxGeometry relative="1" as="geometry" />
        </mxCell>
        <mxCell id="E7qCEXml-a51oX7vlCE2-71" value="15.pelvis bone segment" style="ellipse;whiteSpace=wrap;html=1;" parent="1" vertex="1">
          <mxGeometry x="260" y="591.25" width="90" height="57.5" as="geometry" />
        </mxCell>
        <mxCell id="E7qCEXml-a51oX7vlCE2-73" value="16.pelvis ct mr registration" style="ellipse;whiteSpace=wrap;html=1;" parent="1" vertex="1">
          <mxGeometry x="430" y="588.75" width="100" height="60" as="geometry" />
        </mxCell>
        <mxCell id="ccRq8ted7UfHj1GbX7tM-43" style="edgeStyle=none;rounded=0;orthogonalLoop=1;jettySize=auto;html=1;entryX=0;entryY=0.5;entryDx=0;entryDy=0;" parent="1" source="E7qCEXml-a51oX7vlCE2-70" target="E7qCEXml-a51oX7vlCE2-71" edge="1">
          <mxGeometry relative="1" as="geometry" />
        </mxCell>
        <mxCell id="E7qCEXml-a51oX7vlCE2-70" value="14.liver ct mr registration" style="ellipse;whiteSpace=wrap;html=1;" parent="1" vertex="1">
          <mxGeometry x="92" y="590" width="100" height="60" as="geometry" />
        </mxCell>
        <mxCell id="ccRq8ted7UfHj1GbX7tM-17" value="" style="ellipse;whiteSpace=wrap;html=1;aspect=fixed;" parent="1" vertex="1">
          <mxGeometry height="30" as="geometry" />
        </mxCell>
        <mxCell id="ccRq8ted7UfHj1GbX7tM-25" style="edgeStyle=none;rounded=0;orthogonalLoop=1;jettySize=auto;html=1;entryX=0;entryY=0.5;entryDx=0;entryDy=0;startArrow=none;" parent="1" source="ccRq8ted7UfHj1GbX7tM-26" target="1ea317790d2ca983-2" edge="1">
          <mxGeometry relative="1" as="geometry" />
        </mxCell>
        <mxCell id="ccRq8ted7UfHj1GbX7tM-20" value="" style="ellipse;whiteSpace=wrap;html=1;" parent="1" vertex="1">
          <mxGeometry x="330" y="327.5" height="2.5" as="geometry" />
        </mxCell>
        <mxCell id="ccRq8ted7UfHj1GbX7tM-28" style="edgeStyle=none;rounded=0;orthogonalLoop=1;jettySize=auto;html=1;entryX=0;entryY=0.8;entryDx=0;entryDy=0;entryPerimeter=0;" parent="1" source="ccRq8ted7UfHj1GbX7tM-26" target="1ea317790d2ca983-9" edge="1">
          <mxGeometry relative="1" as="geometry" />
        </mxCell>
        <mxCell id="ccRq8ted7UfHj1GbX7tM-26" value="sync&lt;br&gt;" style="ellipse;whiteSpace=wrap;html=1;aspect=fixed;" parent="1" vertex="1">
          <mxGeometry x="320" y="317.5" width="32.5" height="32.5" as="geometry" />
        </mxCell>
      </root>
    </mxGraphModel>
  </diagram>
</mxfile>
